<svg xmlns="http://www.w3.org/2000/svg" version="1.0" width="500.000000pt" height="500.000000pt" viewBox="0 0 500.000000 500.000000" preserveAspectRatio="xMidYMid meet">

<g transform="translate(0.000000,500.000000) scale(0.100000,-0.100000)" fill="#7e4aef" stroke="none">
<path d="M2093 4295 c-190 -59 -311 -255 -273 -440 16 -78 41 -125 93 -178 91 -91 150 -117 269 -117 97 0 145 15 212 65 128 96 172 184 164 329 -5 91 -33 158 -94 226 -95 105 -251 153 -371 115z m222 -86 c141 -67 210 -232 159 -382 -20 -60 -88 -135 -150 -167 -42 -21 -63 -25 -144 -25 -86 0 -100 3 -148 29 -150 84 -197 278 -104 428 33 53 106 114 150 126 70 19 188 14 237 -9z" fill="#7e4aef"/>
<path d="M2165 3509 c-136 -20 -237 -105 -311 -264 -24 -52 -44 -99 -44 -104 0 -5 -17 -15 -37 -22 -123 -39 -245 -134 -298 -230 -70 -130 -73 -292 -6 -419 27 -51 127 -160 148 -160 7 0 13 -3 13 -8 0 -12 72 -34 115 -36 33 -1 40 2 40 18 0 10 -7 22 -15 26 -8 5 -45 22 -81 39 -78 36 -130 89 -168 170 -23 49 -26 68 -26 156 1 92 3 105 32 161 38 73 103 141 164 170 24 12 59 29 78 38 19 9 39 16 46 16 19 0 51 42 69 92 10 26 22 50 27 53 5 4 9 15 9 26 0 10 4 19 9 19 5 0 13 9 16 21 9 26 29 53 78 101 52 52 123 72 241 66 190 -10 286 -100 286 -268 0 -45 4 -61 21 -76 20 -18 21 -18 35 1 11 15 14 39 11 90 -5 83 -6 85 -39 151 -68 130 -232 199 -413 173z" fill="#7e4aef"/>
<path d="M2923 3191 c-69 -32 -77 -54 -81 -218 -3 -94 -8 -143 -15 -143 -6 0 -30 10 -55 21 -75 37 -149 12 -188 -63 -41 -79 7 -180 147 -311 54 -50 115 -116 135 -145 38 -58 67 -66 72 -22 4 37 -45 104 -142 193 -125 114 -169 185 -152 250 6 24 42 47 74 47 18 0 48 -21 115 -79 31 -28 42 -33 55 -24 15 9 18 37 22 199 3 121 9 197 17 210 31 53 248 43 417 -19 38 -14 75 -32 83 -40 12 -12 15 -58 14 -265 -2 -276 -7 -310 -64 -413 -27 -49 -29 -59 -18 -73 21 -25 36 -19 63 22 82 123 98 204 98 488 0 203 -1 215 -22 253 -32 55 -59 73 -173 111 -89 30 -114 34 -230 37 -112 3 -136 1 -172 -16z" fill="#7e4aef"/>
<path d="M2120 3059 c-38 -42 -92 -146 -119 -228 -41 -125 -22 -266 53 -393 34 -59 99 -121 122 -116 32 6 26 33 -20 90 -75 90 -98 155 -100 273 0 63 4 113 13 135 30 78 45 108 84 168 31 49 38 68 31 80 -17 27 -33 25 -64 -9z" fill="#7e4aef"/>
<path d="M2327 2859 c-24 -14 -64 -87 -76 -139 -15 -65 10 -150 59 -201 70 -74 103 -39 45 46 -33 47 -38 61 -37 111 0 47 6 65 31 101 17 24 31 50 31 58 0 21 -32 35 -53 24z" fill="#7e4aef"/>
<path d="M2446 2124 c-14 -13 -16 -61 -16 -373 0 -197 -3 -373 -6 -390 l-6 -31 -117 0 -116 0 -1 103 c-1 86 -5 111 -26 158 -45 100 -122 142 -256 141 -167 -2 -263 -97 -270 -267 -3 -72 -1 -85 25 -135 21 -40 44 -65 85 -94 55 -38 58 -38 167 -44 61 -2 111 -9 111 -14 0 -26 -49 -73 -99 -96 -50 -23 -68 -26 -171 -25 -125 0 -161 10 -218 58 -60 51 -74 93 -69 209 3 55 11 120 18 143 16 53 8 63 -54 70 -40 5 -47 3 -62 -20 -43 -67 -59 -237 -30 -333 17 -59 87 -172 112 -181 10 -4 39 -19 64 -34 69 -40 139 -52 275 -47 112 4 123 6 196 41 89 43 149 104 173 177 l16 48 407 4 c356 4 413 7 454 22 44 17 48 17 80 -1 28 -15 56 -18 178 -18 174 1 220 16 267 86 28 42 28 45 31 216 3 125 0 178 -8 188 -18 22 -126 21 -134 -1 -3 -9 -6 -82 -6 -163 0 -144 -1 -148 -25 -171 -22 -20 -34 -23 -124 -24 -54 0 -102 2 -105 5 -3 3 -1 23 5 45 17 58 6 171 -20 222 -59 115 -166 169 -318 160 -84 -5 -129 -23 -215 -83 -25 -19 -49 -31 -52 -28 -3 4 -6 106 -6 227 0 258 -2 266 -75 266 -26 0 -50 -6 -59 -16z m539 -534 c84 -52 99 -188 26 -237 -23 -16 -54 -18 -239 -21 l-213 -4 3 36 c3 54 36 107 101 165 81 72 135 92 229 87 37 -3 70 -12 93 -26z m-1015 -8 c51 -25 70 -70 70 -169 l0 -83 -90 0 c-135 0 -176 31 -174 130 1 111 97 171 194 122z" fill="#7e4aef"/>
<path d="M1709 1981 c-44 -45 -37 -86 23 -125 32 -21 60 -15 88 21 30 38 26 76 -11 107 -40 34 -64 33 -100 -3z" fill="#7e4aef"/>
<path d="M1943 1998 c-30 -14 -49 -63 -37 -96 5 -14 23 -34 41 -45 26 -15 36 -16 55 -6 67 34 77 81 29 130 -31 30 -52 35 -88 17z" fill="#7e4aef"/>
<path d="M3401 1979 c-39 -42 -31 -83 22 -123 l28 -21 37 20 c32 17 37 26 40 59 6 73 -78 117 -127 65z" fill="#7e4aef"/>
</g>
</svg>